<?xml version="1.0" encoding="utf-8"?>
<!-- Generator: Adobe Illustrator 24.0.0, SVG Export Plug-In . SVG Version: 6.00 Build 0)  -->
<!DOCTYPE svg PUBLIC "-//W3C//DTD SVG 1.1//EN" "http://www.w3.org/Graphics/SVG/1.1/DTD/svg11.dtd" [
	<!ENTITY ns_extend "http://ns.adobe.com/Extensibility/1.0/">
	<!ENTITY ns_ai "http://ns.adobe.com/AdobeIllustrator/10.0/">
	<!ENTITY ns_graphs "http://ns.adobe.com/Graphs/1.0/">
	<!ENTITY ns_vars "http://ns.adobe.com/Variables/1.0/">
	<!ENTITY ns_imrep "http://ns.adobe.com/ImageReplacement/1.0/">
	<!ENTITY ns_sfw "http://ns.adobe.com/SaveForWeb/1.0/">
	<!ENTITY ns_custom "http://ns.adobe.com/GenericCustomNamespace/1.0/">
	<!ENTITY ns_adobe_xpath "http://ns.adobe.com/XPath/1.0/">
]>
<svg version="1.1" id="Layer_1" xmlns:x="&ns_extend;" xmlns:i="&ns_ai;" xmlns:graph="&ns_graphs;"
	 xmlns="http://www.w3.org/2000/svg" xmlns:xlink="http://www.w3.org/1999/xlink" x="0px" y="0px" viewBox="0 0 13 13"
	 style="enable-background:new 0 0 13 13;" xml:space="preserve">
<style type="text/css">
	.st0{fill:#5F6368;}
</style>
<metadata>
	<sfw  xmlns="&ns_sfw;">
		<slices></slices>
		<sliceSourceBounds  bottomLeftOrigin="true" height="13.0013695" width="13" x="2.5" y="2.4993155"></sliceSourceBounds>
	</sfw>
</metadata>
<path class="st0" d="M12.0735054,7.2305059l-0.0884085-0.1682777c0.038908-0.3741741,0.038908-0.7516108,0.0013294-1.1251411
	l0.0877638-0.1689219l0.6849527-0.3418322L13,4.779644l-0.6876106-1.6596584L11.6848316,2.833575l-0.7265587,0.2421861
	L10.776824,3.0190105c-0.2362652-0.2903574-0.5035028-0.5569515-0.7958345-0.7945058L9.9242392,2.0417271l0.2421455-0.7272031
	L9.8800144,0.686926L8.220356-0.0006847L7.5743113,0.2408571L7.2311502,0.9264944L7.0622282,1.0149026
	C6.6874094,0.9759948,6.3099327,0.9753101,5.9377718,1.0135733L5.7688498,0.9258096L5.426333,0.2415015L4.7802882-0.0006848
	L3.1199856,0.6869261L2.833575,1.3145239l0.2421861,0.7258739L3.0183663,2.2225311
	c-0.2903576,0.2362251-0.5575962,0.503504-0.7945061,0.7958353L2.0417271,3.0751166L1.3151684,2.8329306L0.6876107,3.1193409
	L0,4.779644L0.2408572,5.426333l0.6856372,0.3431611l0.0884084,0.1689224
	C0.9759948,6.3125906,0.9759948,6.6900673,1.0135733,7.0629129L0.9258096,7.2318354l-0.684308,0.3424759L0.0006444,8.2210007
	l0.6876107,1.6596584l0.6275576,0.2864103l0.7259144-0.2415419l0.1814485,0.0567503
	c0.2362654,0.2903576,0.503504,0.5569525,0.7958353,0.7945461l0.0567503,0.1814489L2.833575,11.6854763l0.2870953,0.6275978
	l1.6596179,0.6876106l0.6467295-0.2415419l0.3424764-0.6849527l0.1689224-0.0884485
	c0.3748188,0.0389481,0.7522955,0.0389481,1.1251407,0.0006847l0.1682782,0.0884085l0.3424759,0.6843081L8.220356,13
	l1.6596584-0.6876106l0.2863703-0.6275578l-0.2415018-0.7258739l0.0567513-0.181489
	c0.2910013-0.2369099,0.5575962-0.5041475,0.7945051-0.7958355l0.181489-0.0567503l0.7272034,0.2421865l0.6275578-0.2864103
	L13,8.220356l-0.2408571-0.6466894L12.0735054,7.2305059z M3.7548332,6.5c0-1.511157,1.2313519-2.7405751,2.7451668-2.7405751
	S9.2451668,4.988843,9.2451668,6.5S8.0138149,9.2405748,6.5,9.2405748S3.7548332,8.011157,3.7548332,6.5z"/>
</svg>
